<svg width="130" height="29" viewBox="0 0 130 29" fill="none" xmlns="http://www.w3.org/2000/svg">
<path d="M114.629 16.9426C121.302 17.6975 126.15 18.3988 128.466 18.7528V13.2017H128.461C107.445 10.1324 86.2383 8.5617 65.0002 8.50148C51.107 8.50148 38.1138 9.26156 27.4513 10.1852C26.4706 10.27 25.5102 10.3563 24.5702 10.4441H24.5374L23.8532 10.508H23.8346C17.5273 11.103 12.1919 11.7359 8.1804 12.2602C7.86217 13.1642 7.76584 14.1314 7.89954 15.0803C8.03324 16.0293 8.39305 16.9323 8.94865 17.7131C11.8997 17.339 15.5029 16.9091 19.6342 16.4815V20.2744C18.6497 21.2159 17.4492 21.9014 16.1382 22.2711C14.8271 22.6408 13.4454 22.6832 12.1141 22.3948C10.7828 22.1064 9.54251 21.4958 8.502 20.6167C7.46148 19.7375 6.65246 18.6166 6.14582 17.3521C5.63918 16.0876 5.45039 14.7182 5.59599 13.3638C5.74159 12.0094 6.21713 10.7114 6.98095 9.58346C7.74477 8.45556 8.77355 7.5322 9.97715 6.89429C11.1807 6.25638 12.5224 5.9234 13.8846 5.92452H19.6342V0.370483H13.8809C11.5005 0.370416 9.16005 0.982532 7.08447 2.14802C5.00889 3.31351 3.26791 4.99319 2.02881 7.0257C0.789709 9.05821 0.0941298 11.3752 0.00890129 13.7541C-0.0763272 16.133 0.45166 18.4939 1.54213 20.6099C2.63261 22.7258 4.24892 24.5258 6.23578 25.8369C8.22263 27.1479 10.5133 27.9259 12.8876 28.0962C15.2619 28.2665 17.6401 27.8233 19.7937 26.8092C21.9473 25.7951 23.8039 24.2442 25.1852 22.3055V15.9401C25.9289 15.8722 26.6853 15.8047 27.4543 15.7378V28.1325H33.0068V15.2901C33.7267 15.236 34.4545 15.1832 35.1903 15.1317L42.6957 28.1318H49.1072L41.3727 14.7405C44.3423 14.5724 47.4146 14.4289 50.5686 14.3158V28.1325H56.1211V14.1552C57.0716 14.1339 58.0277 14.1158 58.9896 14.1009V21.9999L59.0201 22.0452V28.102H70.5728C73.1033 28.1029 75.5872 27.4202 77.7618 26.126C79.9364 24.8319 81.7211 22.9743 82.9272 20.7497C84.0351 22.8418 85.6598 24.6158 87.6467 25.903C89.6336 27.1902 91.9167 27.9477 94.279 28.1037C96.6413 28.2596 99.0042 27.8087 101.143 26.7938C103.282 25.779 105.126 24.2339 106.499 22.3055V16.097C107.378 16.1808 108.238 16.2651 109.078 16.3499V28.1325H130V22.58H114.628L114.629 16.9426ZM70.5728 22.1791C70.5371 22.1791 70.4984 22.1791 70.4664 22.1791H64.641V19.6044V14.0548H65.0002C69.6855 14.0548 74.269 14.1411 78.6948 14.2913C78.6327 16.4042 77.7498 18.4097 76.2334 19.8823C74.717 21.355 72.6865 22.1788 70.5728 22.1791ZM100.945 20.273C99.7903 21.3766 98.3425 22.1247 96.7743 22.4281C95.2062 22.7315 93.5838 22.5774 92.1008 21.9842C90.6178 21.3909 89.3368 20.3836 88.4106 19.0823C87.4843 17.781 86.952 16.2408 86.877 14.6453C91.8673 14.9078 96.5876 15.2403 100.945 15.6017V20.273Z" fill="#061DED"/>
<path d="M56.122 5.38359V-0.000137329H50.5695V5.54498C52.394 5.48003 54.2448 5.42623 56.122 5.38359Z" fill="#061DED"/>
<path d="M100.944 6.83037V0.370488H95.1948C93.0782 0.368782 90.9893 0.852074 89.0885 1.78327C87.1877 2.71446 85.5256 4.0688 84.2296 5.74232C90.2016 6.02121 95.8225 6.40422 100.944 6.83037Z" fill="#061DED"/>
<path d="M65.0004 5.28227C70.8013 5.28227 76.4423 5.41465 81.8237 5.63627C80.5167 3.88584 78.8189 2.4649 76.8656 1.4867C74.9123 0.508488 72.7575 5.35927e-05 70.573 0.00191243H59.0203V5.33061C60.9921 5.30036 62.9855 5.28499 65.0004 5.2845" fill="#061DED"/>
<path d="M109.075 0.370483V7.57779C111.04 7.77562 112.895 7.97568 114.627 8.17276V5.92304H130V0.370483H109.075Z" fill="#061DED"/>
<path d="M47.5684 5.66274C46.989 4.10894 45.9486 2.76935 44.5866 1.82346C43.2245 0.877582 41.6059 0.370609 39.9476 0.370483H27.4534V6.96721C33.496 6.44661 40.2867 5.97286 47.5669 5.66274" fill="#061DED"/>
</svg>
